<?xml version="1.0" encoding="utf-8"?>
<!-- Generator: Adobe Illustrator 24.0.3, SVG Export Plug-In . SVG Version: 6.00 Build 0)  -->
<svg version="1.1" id="Layer_1" xmlns="http://www.w3.org/2000/svg" xmlns:xlink="http://www.w3.org/1999/xlink" x="0px" y="0px"
	 viewBox="0 0 575.4 327.9" style="enable-background:new 0 0 575.4 327.9;" xml:space="preserve">
	<style type="text/css">
		.brackets {
			fill: #fff;
		}
		.sword {
			fill: #faaf3c;
		}
	</style>
	<title>cloud-native-entrepreneur-logo-only</title>
	<path
    class="brackets"
    d="M442.7,327.9c-7.3-5.2-14.2-11.5-21.4-17c-1.5-1.7-6.9-3.4-4.6-6c36.8-47.6,78-93.4,113-141.5
    C492.5,117.2,455.1,71.3,418.1,25c-0.5-1.3-3.2-2.3-1.9-3.8c3.7-3.1,7.9-5.7,11.3-9.2c5.5-3.2,10.5-10,16-11.8
    c43.4,53.3,86.4,107,129.8,160.3c1.3,1.8,3.4,3.3,0.8,5.6C530.2,219.6,487.3,275.7,442.7,327.9z" />
  <path
    class="brackets"
    d="M132.5,327.9c-44.6-53.2-88-108.6-131.9-162.6c-1.8-2.3,1.7-3.9,2.7-5.7C45.6,106.6,88.5,54.2,131,1.3
    c2.1-3.4,5.4,2.2,7.4,3.4c6.6,4.9,12.6,10.6,19.2,15.4c4.4,2.1-0.6,4.9-2,7.4c-36.4,45.5-75.1,91.1-110.1,137.3
    c36,44.6,72.2,89.1,108.1,133.8c1.4,2.9,8.5,6.6,4.3,9.5C149.4,314.3,141.6,322.3,132.5,327.9z" />
  <path
    class="sword"
    d="M219,320.7c-8-1.4-22.3-9-22.8-18c-0.2-5.3,3.1-10.6,8.3-12.4c1.4-0.6,3.3-0.5,4.3-2.1
    c5.2-10.1,10.5-20.3,15.8-30.2c5.7-8.9,2.8-7.5-4-13c-8-6.6-17.4-11.6-24.6-19.1c-3.8-6.1,2.5-12.5,5.6-17.5
    c2.9-2.7,7.2-3.5,10.5-1.1c10.2,5.8,20.5,11.4,30.7,17c0.8,0.4,1.1,0.2,1.6-0.5c36-59.2,71.3-118.8,107.5-178
    c10-12.7,38.5-32.2,31,0.4C382.4,58,376.1,67.2,370,77c-6.9,11.4-13.6,22.9-20.6,34.2c-22,37.9-45.5,75-67.9,112.7
    c-1.1,3.8-13,16.1-8.4,18.1c6.6,6.3,35.2,18.7,29,28.5c-5,10.8-10.4,16-21.7,8.3c-8.3-3.6-17.2-10.2-25.4-12.1
    c-8,12.3-17.5,24.3-24.3,36.9C233.8,311.4,227.8,321.1,219,320.7z" />
</svg>
